<svg aria-hidden="true" style="width:0;height:0;position:absolute;overflow:hidden" xmlns="http://www.w3.org/2000/svg"><defs><symbol id="icon-right" viewBox="0 0 32 32"><path fill="#a3a5a3" style="fill:var(--color1,#a3a5a3)" d="M12.205 26.4a1.07 1.07 0 0 0 .712-.283l9.991-9.844a.989.989 0 0 0 0-1.402l-9.991-9.844a1.02 1.02 0 0 0-1.357.066.987.987 0 0 0-.067 1.337l9.291 9.143-9.291 9.143a.989.989 0 0 0 0 1.402c.193.179.447.28.712.283z"/></symbol><symbol id="icon-left" viewBox="0 0 32 32"><path fill="#a3a5a3" style="fill:var(--color1,#a3a5a3)" d="M19.795 26.4a1.07 1.07 0 0 1-.712-.283l-9.991-9.844a.989.989 0 0 1 0-1.402l9.991-9.844a1.02 1.02 0 0 1 1.357.066.987.987 0 0 1 .067 1.337l-9.291 9.143 9.291 9.143a.989.989 0 0 1 0 1.402c-.193.179-.447.28-.712.283z"/></symbol><symbol id="icon-logo" viewBox="0 0 31 32"><path fill="#f7fbfb" style="fill:var(--color2,#f7fbfb)" d="M28.188 6.092 18.156.618C17.426.22 16.465 0 15.448 0s-1.979.219-2.708.618L2.708 6.092C1.189 6.921 0 8.869 0 10.526v10.951c0 1.657 1.19 3.605 2.708 4.434l10.032 5.473c.73.398 1.691.617 2.708.617s1.979-.219 2.708-.617l10.032-5.476c1.519-.829 2.708-2.776 2.708-4.434v-10.95c0-1.653-1.19-3.602-2.708-4.431zM3.269 24.99c-1.164-.635-2.147-2.245-2.147-3.515v-4.68c3.572-.266 5.688.629 8.329 1.753 2.377 1.012 5.236 2.226 9.908 2.88-.873.158-1.754.304-2.633.449-4.771.787-9.282 1.536-11.749 4.045l-1.708-.932zm15.068-9.525c-2.156.81-4.963 1.536-9.115 1.825-1.836-.771-3.583-1.422-5.873-1.573l7.628-7.209 7.36 6.957zm-.533-2.003 5.485-5.184 4.123 3.897c-2.373.204-4.034.999-5.876 1.885-.642.309-1.324.636-2.084.96l-1.648-1.558zm11.97 8.013c0 1.27-.983 2.88-2.147 3.515l-10.032 5.475c-.552.302-1.334.477-2.147.477s-1.595-.173-2.147-.476l-7.329-4.001c2.262-2.112 6.489-2.809 10.946-3.545 5.025-.828 10.199-1.683 12.856-4.75l-.001 3.304zm0-5.286c-1.179 2.418-3.862 3.685-7.058 4.518-5.507-.378-8.752-1.457-11.412-2.543 5.439-.616 8.35-2.014 10.739-3.163 2.353-1.131 4.238-2.032 7.731-1.775v2.962zm0-4.025c-.285-.02-.564-.034-.831-.04l-5.258-4.97a.574.574 0 0 0-.397-.155c-.074 0-.147.014-.215.04s-.13.066-.182.115l-5.88 5.559-5.639-5.329a.574.574 0 0 0-.397-.155c-.074 0-.147.014-.215.04s-.13.066-.182.115l-8.795 8.314c-.216.007-.437.018-.662.034v-5.205c0-1.271.983-2.881 2.147-3.516L13.3 1.536c.554-.302 1.336-.476 2.147-.476s1.595.173 2.147.476l10.032 5.475c1.164.635 2.147 2.245 2.147 3.516l-.003 1.638z"/></symbol><symbol id="icon-menu" viewBox="0 0 32 32"><path fill="none" stroke="#f7fbfb" style="stroke:var(--color2,#f7fbfb)" stroke-linecap="round" stroke-miterlimit="10" stroke-width="2.4" d="M4.8 9.6h22.4M4.8 16h22.4M4.8 21.6h22.4"/></symbol><symbol id="icon-facebook" viewBox="0 0 32 32"><path fill="#f7fbfb" style="fill:var(--color2,#f7fbfb)" d="M16.001 2.72c-7.333 0-13.333 5.987-13.333 13.36 0 6.667 4.88 12.2 11.253 13.2v-9.333h-3.387V16.08h3.387v-2.947c0-3.347 1.987-5.187 5.04-5.187 1.453 0 2.973.253 2.973.253v3.293h-1.68c-1.653 0-2.173 1.027-2.173 2.08v2.507h3.707l-.6 3.867h-3.107v9.333a13.332 13.332 0 0 0 11.254-13.2c0-7.373-6-13.36-13.333-13.36z"/></symbol><symbol id="icon-instagram" viewBox="0 0 32 32"><path fill="#f7fbfb" style="fill:var(--color2,#f7fbfb)" d="M10.401 2.667h11.2a7.739 7.739 0 0 1 7.733 7.733v11.2a7.733 7.733 0 0 1-7.733 7.733h-11.2A7.739 7.739 0 0 1 2.668 21.6V10.4a7.733 7.733 0 0 1 7.733-7.733zm-.267 2.666a4.8 4.8 0 0 0-4.8 4.8v11.733c0 2.653 2.147 4.8 4.8 4.8h11.733a4.8 4.8 0 0 0 4.8-4.8V10.133c0-2.653-2.147-4.8-4.8-4.8H10.134zm12.867 2a1.667 1.667 0 1 1 0 3.334 1.667 1.667 0 0 1 0-3.334zm-7 2a6.67 6.67 0 0 1 4.714 11.381 6.67 6.67 0 0 1-9.428 0 6.67 6.67 0 0 1 0-9.428 6.67 6.67 0 0 1 4.714-1.953zm0 2.667a4.003 4.003 0 0 0-4 4 4.001 4.001 0 0 0 6.828 2.828 4.001 4.001 0 0 0 0-5.656A4.001 4.001 0 0 0 16.001 12z"/></symbol><symbol id="icon-telegram" viewBox="0 0 32 32"><path fill="#f7fbfb" style="fill:var(--color2,#f7fbfb)" d="M15.993 2.667A13.336 13.336 0 0 0 2.915 18.602a13.327 13.327 0 0 0 10.476 10.476 13.34 13.34 0 0 0 13.688-5.67A13.334 13.334 0 0 0 15.993 2.667zm4.24 20.202c-.05.125-.126.237-.222.33s-.212.164-.339.208a.946.946 0 0 1-.775-.069l-3.62-2.813-2.323 2.144a.397.397 0 0 1-.38.052l.445-3.985.013.012.009-.079s6.513-5.931 6.779-6.183c.269-.252.18-.307.18-.307.016-.307-.481 0-.481 0l-8.631 5.552-3.593-1.224s-.552-.197-.604-.633c-.055-.432.621-.667.621-.667L21.601 9.53s1.175-.523 1.175.344l-2.544 12.995z"/></symbol><symbol id="icon-email" viewBox="0 0 32 32"><path fill="#f7fbfb" style="fill:var(--color2,#f7fbfb)" d="M26.88 5.6H5.12c-1.496 0-2.706 1.17-2.706 2.6L2.4 23.8c0 1.43 1.224 2.6 2.72 2.6h21.76c1.496 0 2.72-1.17 2.72-2.6V8.2c0-1.43-1.224-2.6-2.72-2.6zm-.544 5.525-9.615 5.746a1.43 1.43 0 0 1-1.442 0l-9.615-5.746c-.136-.073-.256-.172-.351-.291s-.164-.254-.203-.399a1.052 1.052 0 0 1 .14-.859 1.14 1.14 0 0 1 .747-.497 1.207 1.207 0 0 1 .891.174L16 14.7l9.112-5.447a1.193 1.193 0 0 1 .891-.174c.153.03.298.09.427.175a1.115 1.115 0 0 1 .482.738 1.067 1.067 0 0 1-.225.842 1.165 1.165 0 0 1-.351.291z"/></symbol><symbol id="icon-phone" viewBox="0 0 32 32"><path fill="#f7fbfb" style="fill:var(--color2,#f7fbfb)" d="M21.415 1.6H10.584c-.898 0-1.758.345-2.393.959S7.2 4.005 7.2 4.873v22.255c0 .868.357 1.7.991 2.314s1.496.959 2.393.959h10.831c.898 0 1.759-.345 2.393-.959s.991-1.446.991-2.314V4.873c0-.868-.357-1.7-.991-2.314S22.312 1.6 21.415 1.6zm-5.416 27.491c-1.124 0-2.031-.877-2.031-1.964s.907-1.964 2.031-1.964 2.031.877 2.031 1.964-.907 1.964-2.031 1.964zm6.092-5.236H9.906V5.528h12.185v18.327z"/></symbol><symbol id="icon-place" viewBox="0 0 32 32"><path fill="#f7fbfb" style="fill:var(--color2,#f7fbfb)" d="M16 2.4c-5.307 0-9.6 4.257-9.6 9.52C6.4 19.06 16 29.6 16 29.6s9.6-10.54 9.6-17.68c0-5.263-4.293-9.52-9.6-9.52zm0 12.92c-.909 0-1.781-.358-2.424-.996s-1.004-1.502-1.004-2.404c0-.902.361-1.767 1.004-2.404a3.446 3.446 0 0 1 4.848 0 3.384 3.384 0 0 1 0 4.808A3.446 3.446 0 0 1 16 15.32z"/></symbol><symbol id="icon-Icon-Close" viewBox="0 0 32 32"><path fill="#fff" style="fill:var(--color3,#fff)" d="M25.592 8.556a1.52 1.52 0 0 0-2.149-2.149l-7.444 7.444-7.444-7.444a1.52 1.52 0 0 0-2.149 2.149L13.85 16l-7.444 7.444a1.52 1.52 0 0 0 2.149 2.149l7.444-7.444 7.444 7.444a1.52 1.52 0 0 0 2.149-2.149L18.148 16l7.444-7.444z"/></symbol></defs></svg>