<svg width="28" height="28" viewBox="0 0 28 28" fill="none" xmlns="http://www.w3.org/2000/svg">
<path d="M10.6799 23.1C10.9116 23.0969 11.1337 23.0086 11.3027 22.8524L20.0445 14.2389C20.2087 14.0756 20.3008 13.855 20.3008 13.6252C20.3008 13.3953 20.2087 13.1748 20.0445 13.0115L11.3027 4.39799C11.1329 4.26064 10.9173 4.19044 10.6978 4.20106C10.4783 4.21168 10.2707 4.30236 10.1153 4.45545C9.95997 4.60854 9.86794 4.8131 9.85716 5.02935C9.84639 5.24559 9.91763 5.45805 10.057 5.62541L18.1869 13.6252L10.057 21.625C9.89287 21.7883 9.80078 22.0088 9.80078 22.2387C9.80078 22.4685 9.89287 22.6891 10.057 22.8524C10.226 23.0086 10.4482 23.0969 10.6799 23.1Z" fill="#5B86A1"/>
</svg>
